<mxfile host="app.diagrams.net" modified="2021-06-10T01:12:19.679Z" agent="5.0 (Windows NT 10.0; Win64; x64) AppleWebKit/537.36 (KHTML, like Gecko) Chrome/90.0.4430.212 Safari/537.36" etag="m6qaMZ3-tB1W5uWRhEe7" version="14.7.3" type="github">
  <diagram id="zRziVPeCVlG07U9BPZFa" name="Page-1">
    <mxGraphModel dx="868" dy="850" grid="1" gridSize="10" guides="0" tooltips="1" connect="1" arrows="1" fold="1" page="0" pageScale="1" pageWidth="827" pageHeight="1169" math="0" shadow="0">
      <root>
        <mxCell id="0" />
        <mxCell id="1" parent="0" />
        <mxCell id="hJdnB4xZ4oUYTax6oUDe-4" value="" style="strokeWidth=1;html=1;shape=mxgraph.flowchart.start_1;whiteSpace=wrap;labelBorderColor=#000000;" parent="1" vertex="1">
          <mxGeometry x="210" y="-320" width="120" height="60" as="geometry" />
        </mxCell>
        <mxCell id="hJdnB4xZ4oUYTax6oUDe-14" value="開始" style="text;align=center;verticalAlign=middle;resizable=0;points=[];autosize=1;labelBackgroundColor=#ffffff;labelBorderColor=none;" parent="1" vertex="1">
          <mxGeometry x="250" y="-300" width="40" height="20" as="geometry" />
        </mxCell>
        <mxCell id="hJdnB4xZ4oUYTax6oUDe-34" value="" style="edgeStyle=orthogonalEdgeStyle;html=1;endArrow=openThin;elbow=vertical;startArrow=none;endFill=0;strokeColor=#545B64;rounded=0;" parent="1" edge="1">
          <mxGeometry width="100" relative="1" as="geometry">
            <mxPoint x="270" y="40" as="sourcePoint" />
            <mxPoint x="270.5" y="70" as="targetPoint" />
            <Array as="points">
              <mxPoint x="270" y="50" />
              <mxPoint x="270" y="50" />
            </Array>
          </mxGeometry>
        </mxCell>
        <mxCell id="hJdnB4xZ4oUYTax6oUDe-37" value="上記のj番目の栄養素の&#xa;レシピ1人前当たりの許容最大含有量dj,許容最小含有量ejを&#xa;システム開発者が事前に設定した値と対応させる。&#xa;dj,ejをシステム利用者は設定しない。" style="text;align=center;verticalAlign=middle;resizable=0;points=[];autosize=1;" parent="1" vertex="1">
          <mxGeometry x="110" y="-100" width="330" height="60" as="geometry" />
        </mxCell>
        <mxCell id="hJdnB4xZ4oUYTax6oUDe-39" value="" style="verticalLabelPosition=bottom;verticalAlign=top;html=1;shape=mxgraph.basic.rect;fillColor2=none;strokeWidth=1;size=20;indent=5;rounded=0;labelBackgroundColor=#ffffff;sketch=0;fillColor=none;labelBorderColor=none;" parent="1" vertex="1">
          <mxGeometry x="100" y="-100" width="340" height="60" as="geometry" />
        </mxCell>
        <mxCell id="hJdnB4xZ4oUYTax6oUDe-41" value="代替食材の全ての組み合わせから&#xa;許容最大含有量d1,許容最小含有量e1の条件を満たす&#xa;代替食材の組み合わせを抽出する。" style="text;align=center;verticalAlign=middle;resizable=0;points=[];autosize=1;" parent="1" vertex="1">
          <mxGeometry x="120" y="-10" width="300" height="50" as="geometry" />
        </mxCell>
        <mxCell id="hJdnB4xZ4oUYTax6oUDe-42" value="" style="verticalLabelPosition=bottom;verticalAlign=top;html=1;shape=mxgraph.basic.rect;fillColor2=none;strokeWidth=1;size=20;indent=5;rounded=0;labelBackgroundColor=#ffffff;sketch=0;fillColor=none;labelBorderColor=none;" parent="1" vertex="1">
          <mxGeometry x="100" y="-10" width="340" height="50" as="geometry" />
        </mxCell>
        <mxCell id="hJdnB4xZ4oUYTax6oUDe-43" value="" style="strokeWidth=2;html=1;shape=mxgraph.flowchart.decision;whiteSpace=wrap;rounded=0;labelBackgroundColor=#ffffff;sketch=0;fillColor=none;" parent="1" vertex="1">
          <mxGeometry x="100" y="70" width="340" height="120" as="geometry" />
        </mxCell>
        <mxCell id="hJdnB4xZ4oUYTax6oUDe-44" value="抽出したレシピ数 &gt; 提案するレシピ数の上限&#xa;or&#xa;抽出したレシピ数 == 0" style="text;align=center;verticalAlign=middle;resizable=0;points=[];autosize=1;" parent="1" vertex="1">
          <mxGeometry x="140" y="110" width="260" height="50" as="geometry" />
        </mxCell>
        <mxCell id="hJdnB4xZ4oUYTax6oUDe-45" value="" style="edgeStyle=orthogonalEdgeStyle;html=1;endArrow=openThin;elbow=vertical;startArrow=none;endFill=0;strokeColor=#545B64;rounded=0;" parent="1" edge="1">
          <mxGeometry width="100" relative="1" as="geometry">
            <mxPoint x="270" y="190" as="sourcePoint" />
            <mxPoint x="270.5" y="220" as="targetPoint" />
            <Array as="points">
              <mxPoint x="270" y="200" />
              <mxPoint x="270" y="200" />
            </Array>
          </mxGeometry>
        </mxCell>
        <mxCell id="hJdnB4xZ4oUYTax6oUDe-46" value="" style="verticalLabelPosition=bottom;verticalAlign=top;html=1;shape=mxgraph.basic.rect;fillColor2=none;strokeWidth=1;size=20;indent=5;rounded=0;labelBackgroundColor=#ffffff;sketch=0;fillColor=none;labelBorderColor=none;" parent="1" vertex="1">
          <mxGeometry x="100" y="220" width="340" height="80" as="geometry" />
        </mxCell>
        <mxCell id="hJdnB4xZ4oUYTax6oUDe-48" value="既存料理レシピriの2番目の被代替え食材の&#xa;代替食材集合(A(m(ri,2)))から代替食材(j2)を抽出する。&#xa;抽出した代替食材(j2)のレシピ1人前当たりの&#xa;1番目の栄養素の含有量をsum1に足す。" style="text;align=center;verticalAlign=middle;resizable=0;points=[];autosize=1;" parent="1" vertex="1">
          <mxGeometry x="120" y="340" width="310" height="60" as="geometry" />
        </mxCell>
        <mxCell id="hJdnB4xZ4oUYTax6oUDe-49" value="" style="edgeStyle=orthogonalEdgeStyle;html=1;endArrow=openThin;elbow=vertical;startArrow=none;endFill=0;strokeColor=#545B64;rounded=0;" parent="1" edge="1">
          <mxGeometry width="100" relative="1" as="geometry">
            <mxPoint x="270" y="410" as="sourcePoint" />
            <mxPoint x="270.5" y="440" as="targetPoint" />
            <Array as="points">
              <mxPoint x="270" y="420" />
              <mxPoint x="270" y="420" />
            </Array>
          </mxGeometry>
        </mxCell>
        <mxCell id="hJdnB4xZ4oUYTax6oUDe-50" value="(sum1 + W(2,1) &gt;= e1) &amp;&amp; (sum1 + X(2,1) &lt;= d1)" style="text;align=center;verticalAlign=middle;resizable=0;points=[];autosize=1;" parent="1" vertex="1">
          <mxGeometry x="135" y="470" width="280" height="20" as="geometry" />
        </mxCell>
        <mxCell id="hJdnB4xZ4oUYTax6oUDe-51" value="" style="strokeWidth=2;html=1;shape=mxgraph.flowchart.decision;whiteSpace=wrap;rounded=0;labelBackgroundColor=#ffffff;sketch=0;fillColor=none;" parent="1" vertex="1">
          <mxGeometry x="100" y="440" width="340" height="80" as="geometry" />
        </mxCell>
        <mxCell id="hJdnB4xZ4oUYTax6oUDe-52" value="" style="edgeStyle=orthogonalEdgeStyle;html=1;endArrow=openThin;elbow=vertical;startArrow=none;endFill=0;strokeColor=#545B64;rounded=0;" parent="1" edge="1">
          <mxGeometry width="100" relative="1" as="geometry">
            <mxPoint x="270" y="520" as="sourcePoint" />
            <mxPoint x="270.5" y="550" as="targetPoint" />
            <Array as="points">
              <mxPoint x="270" y="530" />
              <mxPoint x="270" y="530" />
            </Array>
          </mxGeometry>
        </mxCell>
        <mxCell id="hJdnB4xZ4oUYTax6oUDe-53" value="..." style="text;align=center;verticalAlign=middle;resizable=0;points=[];autosize=1;fontSize=28;" parent="1" vertex="1">
          <mxGeometry x="250" y="550" width="40" height="40" as="geometry" />
        </mxCell>
        <mxCell id="hJdnB4xZ4oUYTax6oUDe-56" value="" style="edgeStyle=orthogonalEdgeStyle;html=1;endArrow=openThin;elbow=vertical;startArrow=none;endFill=0;strokeColor=#545B64;rounded=0;" parent="1" edge="1">
          <mxGeometry width="100" relative="1" as="geometry">
            <mxPoint x="270" y="610" as="sourcePoint" />
            <mxPoint x="270.5" y="640" as="targetPoint" />
            <Array as="points">
              <mxPoint x="270" y="620" />
              <mxPoint x="270" y="620" />
            </Array>
          </mxGeometry>
        </mxCell>
        <mxCell id="hJdnB4xZ4oUYTax6oUDe-57" value="既存料理レシピriの|M(ri)|番目の被代替え食材の&#xa;代替食材集合(A(m(ri,|M(ri)|)))から&#xa;代替食材(j|M(ri)|)を抽出する。&#xa;抽出した代替食材(j|M(ri)|)のレシピ1人前当たりの&#xa;1番目の栄養素の含有量をsum1に足す。" style="text;align=center;verticalAlign=middle;resizable=0;points=[];autosize=1;" parent="1" vertex="1">
          <mxGeometry x="130" y="640" width="280" height="80" as="geometry" />
        </mxCell>
        <mxCell id="hJdnB4xZ4oUYTax6oUDe-59" value="" style="verticalLabelPosition=bottom;verticalAlign=top;html=1;shape=mxgraph.basic.rect;fillColor2=none;strokeWidth=1;size=20;indent=5;rounded=0;labelBackgroundColor=#ffffff;sketch=0;fillColor=none;labelBorderColor=none;" parent="1" vertex="1">
          <mxGeometry x="520" y="760" width="280" height="60" as="geometry" />
        </mxCell>
        <mxCell id="hJdnB4xZ4oUYTax6oUDe-60" value="" style="edgeStyle=orthogonalEdgeStyle;html=1;endArrow=openThin;elbow=vertical;startArrow=none;endFill=0;strokeColor=#545B64;rounded=0;" parent="1" edge="1">
          <mxGeometry width="100" relative="1" as="geometry">
            <mxPoint x="270" y="720" as="sourcePoint" />
            <mxPoint x="270.5" y="750" as="targetPoint" />
            <Array as="points">
              <mxPoint x="270" y="730" />
              <mxPoint x="270" y="730" />
            </Array>
          </mxGeometry>
        </mxCell>
        <mxCell id="hJdnB4xZ4oUYTax6oUDe-61" value="" style="strokeWidth=2;html=1;shape=mxgraph.flowchart.decision;whiteSpace=wrap;rounded=0;labelBackgroundColor=#ffffff;sketch=0;fillColor=none;" parent="1" vertex="1">
          <mxGeometry x="100" y="750" width="350" height="60" as="geometry" />
        </mxCell>
        <mxCell id="hJdnB4xZ4oUYTax6oUDe-63" value="(sum1 &gt;= e1) &amp;&amp; (sum1 &lt;= d1)" style="text;align=center;verticalAlign=middle;resizable=0;points=[];autosize=1;" parent="1" vertex="1">
          <mxGeometry x="170" y="770" width="180" height="20" as="geometry" />
        </mxCell>
        <mxCell id="hJdnB4xZ4oUYTax6oUDe-64" value="候補r&#39;(i,j1,j2,...,j|M(ri)|)の生成と保存" style="text;align=center;verticalAlign=middle;resizable=0;points=[];autosize=1;fontSize=12;" parent="1" vertex="1">
          <mxGeometry x="170" y="850" width="200" height="20" as="geometry" />
        </mxCell>
        <mxCell id="hJdnB4xZ4oUYTax6oUDe-66" value="" style="verticalLabelPosition=bottom;verticalAlign=top;html=1;shape=mxgraph.basic.rect;fillColor2=none;strokeWidth=1;size=20;indent=5;rounded=0;labelBackgroundColor=#ffffff;sketch=0;fillColor=none;labelBorderColor=none;" parent="1" vertex="1">
          <mxGeometry x="170" y="840" width="200" height="40" as="geometry" />
        </mxCell>
        <mxCell id="hJdnB4xZ4oUYTax6oUDe-68" value="" style="edgeStyle=orthogonalEdgeStyle;html=1;endArrow=openThin;elbow=vertical;startArrow=none;endFill=0;strokeColor=#545B64;rounded=0;" parent="1" edge="1">
          <mxGeometry width="100" relative="1" as="geometry">
            <mxPoint x="270" y="810" as="sourcePoint" />
            <mxPoint x="270.5" y="840" as="targetPoint" />
            <Array as="points">
              <mxPoint x="270" y="820" />
              <mxPoint x="270" y="820" />
            </Array>
          </mxGeometry>
        </mxCell>
        <mxCell id="hJdnB4xZ4oUYTax6oUDe-70" value="" style="edgeStyle=orthogonalEdgeStyle;html=1;endArrow=openThin;elbow=vertical;startArrow=none;endFill=0;strokeColor=#545B64;rounded=0;" parent="1" edge="1">
          <mxGeometry width="100" relative="1" as="geometry">
            <mxPoint x="450" y="780" as="sourcePoint" />
            <mxPoint x="520" y="780" as="targetPoint" />
            <Array as="points">
              <mxPoint x="450" y="780" />
              <mxPoint x="450" y="780" />
            </Array>
          </mxGeometry>
        </mxCell>
        <mxCell id="hJdnB4xZ4oUYTax6oUDe-71" value="&#xa;抽出した代替食材(j|M(ri)|)のレシピ1人前当たりの&#xa;j番目の栄養素の含有量をsumjに引く。&#xa;j|M(ri)|をインクリメントする。&#xa;" style="text;align=center;verticalAlign=middle;resizable=0;points=[];autosize=1;" parent="1" vertex="1">
          <mxGeometry x="520" y="760" width="280" height="60" as="geometry" />
        </mxCell>
        <mxCell id="hJdnB4xZ4oUYTax6oUDe-74" value="" style="edgeStyle=orthogonalEdgeStyle;html=1;endArrow=openThin;elbow=vertical;startArrow=none;endFill=0;strokeColor=#545B64;rounded=0;" parent="1" edge="1">
          <mxGeometry width="100" relative="1" as="geometry">
            <mxPoint x="370" y="860" as="sourcePoint" />
            <mxPoint x="660" y="820" as="targetPoint" />
            <Array as="points">
              <mxPoint x="660" y="860" />
              <mxPoint x="660" y="820" />
            </Array>
          </mxGeometry>
        </mxCell>
        <mxCell id="hJdnB4xZ4oUYTax6oUDe-75" value="" style="verticalLabelPosition=bottom;verticalAlign=top;html=1;shape=mxgraph.basic.rect;fillColor2=none;strokeWidth=1;size=20;indent=5;rounded=0;labelBackgroundColor=#ffffff;sketch=0;fillColor=none;labelBorderColor=none;" parent="1" vertex="1">
          <mxGeometry x="100" y="640" width="350" height="80" as="geometry" />
        </mxCell>
        <mxCell id="hJdnB4xZ4oUYTax6oUDe-84" value="" style="edgeStyle=orthogonalEdgeStyle;html=1;endArrow=openThin;elbow=vertical;startArrow=none;endFill=0;strokeColor=#545B64;rounded=0;" parent="1" edge="1">
          <mxGeometry width="100" relative="1" as="geometry">
            <mxPoint x="440" y="480" as="sourcePoint" />
            <mxPoint x="510" y="480" as="targetPoint" />
            <Array as="points">
              <mxPoint x="440" y="480" />
              <mxPoint x="440" y="480" />
            </Array>
          </mxGeometry>
        </mxCell>
        <mxCell id="hJdnB4xZ4oUYTax6oUDe-88" value="" style="edgeStyle=orthogonalEdgeStyle;html=1;endArrow=openThin;elbow=vertical;startArrow=none;endFill=0;strokeColor=#545B64;rounded=0;" parent="1" edge="1">
          <mxGeometry width="100" relative="1" as="geometry">
            <mxPoint x="440" y="260" as="sourcePoint" />
            <mxPoint x="510" y="260" as="targetPoint" />
            <Array as="points">
              <mxPoint x="440" y="260" />
              <mxPoint x="440" y="260" />
            </Array>
          </mxGeometry>
        </mxCell>
        <mxCell id="hJdnB4xZ4oUYTax6oUDe-98" value="No" style="text;align=center;verticalAlign=middle;resizable=0;points=[];autosize=1;fontSize=12;" parent="1" vertex="1">
          <mxGeometry x="460" y="760" width="30" height="20" as="geometry" />
        </mxCell>
        <mxCell id="hJdnB4xZ4oUYTax6oUDe-99" value="No" style="text;align=center;verticalAlign=middle;resizable=0;points=[];autosize=1;fontSize=12;" parent="1" vertex="1">
          <mxGeometry x="450" y="240" width="30" height="20" as="geometry" />
        </mxCell>
        <mxCell id="hJdnB4xZ4oUYTax6oUDe-100" value="No" style="text;align=center;verticalAlign=middle;resizable=0;points=[];autosize=1;fontSize=12;" parent="1" vertex="1">
          <mxGeometry x="450" y="460" width="30" height="20" as="geometry" />
        </mxCell>
        <mxCell id="hJdnB4xZ4oUYTax6oUDe-101" value="Yes" style="text;align=center;verticalAlign=middle;resizable=0;points=[];autosize=1;fontSize=12;" parent="1" vertex="1">
          <mxGeometry x="270" y="520" width="40" height="20" as="geometry" />
        </mxCell>
        <mxCell id="hJdnB4xZ4oUYTax6oUDe-102" value="Yes" style="text;align=center;verticalAlign=middle;resizable=0;points=[];autosize=1;fontSize=12;" parent="1" vertex="1">
          <mxGeometry x="270" y="810" width="40" height="20" as="geometry" />
        </mxCell>
        <mxCell id="hJdnB4xZ4oUYTax6oUDe-103" value="Yes" style="text;align=center;verticalAlign=middle;resizable=0;points=[];autosize=1;fontSize=12;" parent="1" vertex="1">
          <mxGeometry x="270" y="190" width="40" height="20" as="geometry" />
        </mxCell>
        <mxCell id="hJdnB4xZ4oUYTax6oUDe-134" value="" style="edgeStyle=orthogonalEdgeStyle;html=1;endArrow=openThin;elbow=vertical;startArrow=none;endFill=0;strokeColor=#545B64;rounded=0;" parent="1" edge="1">
          <mxGeometry width="100" relative="1" as="geometry">
            <mxPoint x="790" y="160" as="sourcePoint" />
            <mxPoint x="670" y="930" as="targetPoint" />
            <Array as="points">
              <mxPoint x="870" y="160" />
            </Array>
          </mxGeometry>
        </mxCell>
        <mxCell id="hJdnB4xZ4oUYTax6oUDe-135" value="" style="strokeWidth=1;html=1;shape=mxgraph.flowchart.start_1;whiteSpace=wrap;labelBorderColor=#000000;" parent="1" vertex="1">
          <mxGeometry x="550" y="900" width="120" height="60" as="geometry" />
        </mxCell>
        <mxCell id="hJdnB4xZ4oUYTax6oUDe-136" value="終了" style="text;align=center;verticalAlign=middle;resizable=0;points=[];autosize=1;fontSize=12;" parent="1" vertex="1">
          <mxGeometry x="590" y="920" width="40" height="20" as="geometry" />
        </mxCell>
        <mxCell id="hJdnB4xZ4oUYTax6oUDe-140" value="Yes" style="text;align=center;verticalAlign=middle;resizable=0;points=[];autosize=1;fontSize=12;" parent="1" vertex="1">
          <mxGeometry x="270" y="620" width="40" height="20" as="geometry" />
        </mxCell>
        <mxCell id="hJdnB4xZ4oUYTax6oUDe-141" value="No" style="text;align=center;verticalAlign=middle;resizable=0;points=[];autosize=1;fontSize=12;" parent="1" vertex="1">
          <mxGeometry x="800" y="140" width="30" height="20" as="geometry" />
        </mxCell>
        <mxCell id="EWWK25YCGGDl8XbODBrF-1" value="" style="edgeStyle=orthogonalEdgeStyle;html=1;endArrow=openThin;elbow=vertical;startArrow=none;endFill=0;strokeColor=#545B64;rounded=0;" parent="1" edge="1">
          <mxGeometry width="100" relative="1" as="geometry">
            <mxPoint x="270" y="-260" as="sourcePoint" />
            <mxPoint x="270.5" y="-230" as="targetPoint" />
            <Array as="points">
              <mxPoint x="270.5" y="-250" />
              <mxPoint x="270.5" y="-250" />
            </Array>
          </mxGeometry>
        </mxCell>
        <mxCell id="EWWK25YCGGDl8XbODBrF-3" value="" style="verticalLabelPosition=bottom;verticalAlign=top;html=1;shape=mxgraph.basic.rect;fillColor2=none;strokeWidth=1;size=20;indent=5;rounded=0;labelBackgroundColor=#ffffff;sketch=0;fillColor=none;labelBorderColor=none;" parent="1" vertex="1">
          <mxGeometry x="100" y="-230" width="340" height="30" as="geometry" />
        </mxCell>
        <mxCell id="EWWK25YCGGDl8XbODBrF-4" value="利用者が優先順位の高い栄養素から順に栄養素を並べる。&#xa;sorted_eiyouso_list = [栄養素1,栄養素2,...,栄養素n]" style="text;align=center;verticalAlign=middle;resizable=0;points=[];autosize=1;strokeColor=none;" parent="1" vertex="1">
          <mxGeometry x="110" y="-230" width="330" height="30" as="geometry" />
        </mxCell>
        <mxCell id="EWWK25YCGGDl8XbODBrF-6" value="提案するレシピ数の上限(number_of_recipies)&#xa;を利用者が決定する。" style="text;align=center;verticalAlign=middle;resizable=0;points=[];autosize=1;strokeColor=none;" parent="1" vertex="1">
          <mxGeometry x="135" y="-170" width="260" height="30" as="geometry" />
        </mxCell>
        <mxCell id="EWWK25YCGGDl8XbODBrF-11" value="" style="edgeStyle=orthogonalEdgeStyle;html=1;endArrow=openThin;elbow=vertical;startArrow=none;endFill=0;strokeColor=#545B64;rounded=0;" parent="1" edge="1">
          <mxGeometry width="100" relative="1" as="geometry">
            <mxPoint x="270" y="-130" as="sourcePoint" />
            <mxPoint x="270.5" y="-100" as="targetPoint" />
            <Array as="points">
              <mxPoint x="270.5" y="-120" />
              <mxPoint x="270.5" y="-120" />
            </Array>
          </mxGeometry>
        </mxCell>
        <mxCell id="EWWK25YCGGDl8XbODBrF-14" value="" style="verticalLabelPosition=bottom;verticalAlign=top;html=1;shape=mxgraph.basic.rect;fillColor2=none;strokeWidth=1;size=20;indent=5;rounded=0;labelBackgroundColor=#ffffff;sketch=0;fillColor=none;labelBorderColor=none;" parent="1" vertex="1">
          <mxGeometry x="100" y="-170" width="340" height="40" as="geometry" />
        </mxCell>
        <mxCell id="EWWK25YCGGDl8XbODBrF-15" value="" style="edgeStyle=orthogonalEdgeStyle;html=1;endArrow=openThin;elbow=vertical;startArrow=none;endFill=0;strokeColor=#545B64;rounded=0;" parent="1" edge="1">
          <mxGeometry width="100" relative="1" as="geometry">
            <mxPoint x="270" y="-200" as="sourcePoint" />
            <mxPoint x="270" y="-170" as="targetPoint" />
            <Array as="points">
              <mxPoint x="270.5" y="-190" />
              <mxPoint x="270.5" y="-190" />
            </Array>
          </mxGeometry>
        </mxCell>
        <mxCell id="01D-o3mro5K63EcvY-T5-3" value="" style="edgeStyle=orthogonalEdgeStyle;html=1;endArrow=openThin;elbow=vertical;startArrow=none;endFill=0;strokeColor=#545B64;rounded=0;" parent="1" edge="1">
          <mxGeometry width="100" relative="1" as="geometry">
            <mxPoint x="270" y="-40" as="sourcePoint" />
            <mxPoint x="270.5" y="-10" as="targetPoint" />
            <Array as="points">
              <mxPoint x="270" y="-30" />
              <mxPoint x="270" y="-30" />
            </Array>
          </mxGeometry>
        </mxCell>
      </root>
    </mxGraphModel>
  </diagram>
</mxfile>
